<?xml version="1.0" encoding="UTF-8"?><svg id="a" xmlns="http://www.w3.org/2000/svg" width="219.81" height="35.36" viewBox="0 0 219.81 35.36"><path d="M20.21,26.22c-1.27.63-3.8,1.27-7.04,1.27C5.66,27.49,0,22.74,0,14S5.66,0,13.92,0c3.32,0,5.42.71,6.33,1.19l-.83,2.81c-1.3-.63-3.16-1.11-5.38-1.11C7.79,2.89,3.64,6.88,3.64,13.88c0,6.53,3.76,10.72,10.24,10.72,2.1,0,4.23-.43,5.62-1.11l.71,2.73Z"/><path d="M41.29,17.36c0,7.08-4.9,10.16-9.53,10.16-5.18,0-9.18-3.8-9.18-9.85,0-6.41,4.19-10.16,9.49-10.16s9.22,3.99,9.22,9.85ZM26.1,17.56c0,4.19,2.41,7.36,5.81,7.36s5.81-3.12,5.81-7.44c0-3.24-1.62-7.36-5.74-7.36s-5.89,3.8-5.89,7.44Z"/><path d="M45.68,13.13c0-1.98-.04-3.6-.16-5.18h3.05l.16,3.08h.12c1.07-1.82,2.85-3.52,6.01-3.52,2.61,0,4.59,1.58,5.42,3.84h.08c.59-1.07,1.34-1.9,2.14-2.49,1.15-.87,2.41-1.34,4.23-1.34,2.53,0,6.29,1.66,6.29,8.31v11.27h-3.4v-10.84c0-3.68-1.34-5.89-4.15-5.89-1.98,0-3.52,1.46-4.11,3.16-.16.47-.28,1.11-.28,1.74v11.83h-3.4v-11.47c0-3.05-1.34-5.26-3.99-5.26-2.18,0-3.76,1.74-4.31,3.48-.2.51-.28,1.11-.28,1.7v11.55h-3.4v-13.96Z"/><path d="M82.54,2.57c.04,1.19-.83,2.14-2.21,2.14-1.23,0-2.1-.95-2.1-2.14s.91-2.18,2.17-2.18,2.14.95,2.14,2.18ZM78.66,27.09V7.95h3.48v19.14h-3.48Z"/><path d="M87.92,13.13c0-1.98-.04-3.6-.16-5.18h3.09l.2,3.16h.08c.95-1.82,3.16-3.6,6.33-3.6,2.65,0,6.76,1.58,6.76,8.15v11.43h-3.48v-11.03c0-3.08-1.15-5.66-4.43-5.66-2.29,0-4.07,1.62-4.67,3.56-.16.44-.24,1.03-.24,1.62v11.51h-3.48v-13.96Z"/><path d="M126.36,7.95c-.08,1.38-.16,2.93-.16,5.26v11.11c0,4.39-.87,7.08-2.73,8.74-1.86,1.74-4.55,2.29-6.96,2.29s-4.82-.55-6.37-1.58l.87-2.65c1.27.79,3.24,1.5,5.62,1.5,3.56,0,6.17-1.86,6.17-6.68v-2.14h-.08c-1.07,1.78-3.12,3.2-6.09,3.2-4.75,0-8.15-4.03-8.15-9.33,0-6.49,4.23-10.16,8.62-10.16,3.32,0,5.14,1.74,5.97,3.32h.08l.16-2.89h3.05ZM122.76,15.5c0-.59-.04-1.11-.2-1.58-.63-2.02-2.33-3.68-4.86-3.68-3.32,0-5.7,2.81-5.7,7.24,0,3.76,1.9,6.88,5.66,6.88,2.14,0,4.07-1.34,4.83-3.56.2-.59.28-1.27.28-1.86v-3.44Z"/><path d="M140,22.9c1.54.95,3.8,1.74,6.17,1.74,3.52,0,5.58-1.86,5.58-4.55,0-2.49-1.42-3.92-5.02-5.3-4.35-1.54-7.04-3.8-7.04-7.55,0-4.15,3.44-7.24,8.62-7.24,2.73,0,4.71.63,5.89,1.31l-.95,2.81c-.87-.47-2.65-1.27-5.06-1.27-3.64,0-5.02,2.18-5.02,3.99,0,2.49,1.62,3.72,5.3,5.14,4.51,1.74,6.8,3.92,6.8,7.83,0,4.11-3.04,7.67-9.33,7.67-2.57,0-5.38-.75-6.8-1.7l.87-2.89Z"/><path d="M177.41,17.36c0,7.08-4.9,10.16-9.53,10.16-5.18,0-9.18-3.8-9.18-9.85,0-6.41,4.19-10.16,9.49-10.16s9.21,3.99,9.21,9.85ZM162.23,17.56c0,4.19,2.41,7.36,5.81,7.36s5.81-3.12,5.81-7.44c0-3.24-1.62-7.36-5.74-7.36s-5.89,3.8-5.89,7.44Z"/><path d="M199.13,17.36c0,7.08-4.9,10.16-9.53,10.16-5.18,0-9.18-3.8-9.18-9.85,0-6.41,4.19-10.16,9.49-10.16s9.22,3.99,9.22,9.85ZM183.94,17.56c0,4.19,2.41,7.36,5.81,7.36s5.81-3.12,5.81-7.44c0-3.24-1.62-7.36-5.73-7.36s-5.89,3.8-5.89,7.44Z"/><path d="M203.52,13.13c0-1.98-.04-3.6-.16-5.18h3.09l.2,3.16h.08c.95-1.82,3.16-3.6,6.33-3.6,2.65,0,6.76,1.58,6.76,8.15v11.43h-3.48v-11.03c0-3.08-1.15-5.66-4.43-5.66-2.29,0-4.07,1.62-4.67,3.56-.16.44-.24,1.03-.24,1.62v11.51h-3.48v-13.96Z"/></svg>